<svg xmlns="http://www.w3.org/2000/svg" width="602.187" height="107.906" viewBox="0 0 602.187 107.906">
  <metadata><?xpacket begin="﻿" id="W5M0MpCehiHzreSzNTczkc9d"?>
<x:xmpmeta xmlns:x="adobe:ns:meta/" x:xmptk="Adobe XMP Core 5.6-c142 79.160924, 2017/07/13-01:06:39        ">
   <rdf:RDF xmlns:rdf="http://www.w3.org/1999/02/22-rdf-syntax-ns#">
      <rdf:Description rdf:about=""/>
   </rdf:RDF>
</x:xmpmeta>
                                                                                                    
                                                                                                    
                                                                                                    
                                                                                                    
                                                                                                    
                                                                                                    
                                                                                                    
                                                                                                    
                                                                                                    
                                                                                                    
                                                                                                    
                                                                                                    
                                                                                                    
                                                                                                    
                                                                                                    
                                                                                                    
                                                                                                    
                                                                                                    
                                                                                                    
                                                                                                    
                           
<?xpacket end="w"?></metadata>
<defs>
    <style>
      .cls-1 {
        fill: #222;
        fill-rule: evenodd;
      }
    </style>
  </defs>
  <path id="excore" class="cls-1" d="M646.475,501.909a30.933,30.933,0,0,1-9.612,10.646q-6.1,4.24-15.4,4.238a32.566,32.566,0,0,1-9.3-1.343,24.845,24.845,0,0,1-8.372-4.342,25.711,25.711,0,0,1-6.409-7.442,28.4,28.4,0,0,1-3.411-10.646h76.282a11.541,11.541,0,0,1,.206-2.274,13.8,13.8,0,0,1,.207-2.274v-2.481a65.141,65.141,0,0,0-3.307-21.086,48.1,48.1,0,0,0-9.717-16.848,44.321,44.321,0,0,0-15.917-11.163,55.189,55.189,0,0,0-21.707-4.031,50.887,50.887,0,0,0-21.189,4.341,52.432,52.432,0,0,0-27.6,28.838,55.42,55.42,0,0,0-3.927,20.776,56.337,56.337,0,0,0,4.031,21.6,51.032,51.032,0,0,0,28.321,28.321,55.772,55.772,0,0,0,21.4,4.031q17.157,0,29.045-7.648a56.759,56.759,0,0,0,18.915-20.053ZM595.414,473.8a26.185,26.185,0,0,1,9.3-13.851,24.8,24.8,0,0,1,15.3-4.961,27.52,27.52,0,0,1,10.647,1.86A23.827,23.827,0,0,1,638.1,461.6a21.2,21.2,0,0,1,4.548,6.2,17.592,17.592,0,0,1,1.757,6H595.414Zm75.456,63.671h32.042l18.4-28.942h1.447l19.019,28.942h31.835l-35.557-51.475,35.557-49.82H740.536l-17.365,28.114h-1.447l-18.4-28.114H671.283l34.73,49.82ZM850.1,500.876a26.674,26.674,0,0,1-9.406,11.059,25.813,25.813,0,0,1-14.367,3.825,25.088,25.088,0,0,1-10.13-2.068,25.966,25.966,0,0,1-8.372-5.788,26.434,26.434,0,0,1-5.685-9.1,35.809,35.809,0,0,1,0-23.98,26.472,26.472,0,0,1,5.685-9.1,26.029,26.029,0,0,1,8.372-5.788,25.154,25.154,0,0,1,10.13-2.067q8.265,0,13.747,3.617a26.7,26.7,0,0,1,8.992,10.647L873.872,461.8A47.765,47.765,0,0,0,856.3,440.925q-11.992-8.062-29.562-8.062a56.359,56.359,0,0,0-21.6,4.031,50.093,50.093,0,0,0-28.114,28.218,57.128,57.128,0,0,0-4.031,21.706,56.337,56.337,0,0,0,4.031,21.6,52.279,52.279,0,0,0,11.163,17.055,50.3,50.3,0,0,0,16.951,11.266,56.34,56.34,0,0,0,21.6,4.031q17.776,0,29.665-8.165a56.536,56.536,0,0,0,18.5-20.983Zm61.5-63.982a50.093,50.093,0,0,0-28.114,28.218,60.456,60.456,0,0,0,0,43.412A50.093,50.093,0,0,0,911.6,536.742a59.9,59.9,0,0,0,43.206,0,50.1,50.1,0,0,0,28.115-28.218,60.456,60.456,0,0,0,0-43.412,50.1,50.1,0,0,0-28.115-28.218A59.9,59.9,0,0,0,911.6,436.894Zm11.474,76.9a25.8,25.8,0,0,1-8.476-5.685,26.927,26.927,0,0,1-5.892-9.1,35.363,35.363,0,0,1,0-24.394,26.943,26.943,0,0,1,5.892-9.095,25.848,25.848,0,0,1,8.476-5.685,26.259,26.259,0,0,1,10.129-1.964,26.53,26.53,0,0,1,10.026,1.964,25.6,25.6,0,0,1,8.579,5.685,26.943,26.943,0,0,1,5.892,9.095,35.348,35.348,0,0,1,0,24.394,26.927,26.927,0,0,1-5.892,9.1,25.553,25.553,0,0,1-8.579,5.685A26.492,26.492,0,0,1,933.2,515.76,26.222,26.222,0,0,1,923.075,513.8Zm74.006,23.67h27.079V487.59a36.485,36.485,0,0,1,1.76-11.531,28.888,28.888,0,0,1,4.96-9.248,22.329,22.329,0,0,1,7.75-6.131,23.138,23.138,0,0,1,10.13-2.183,31.855,31.855,0,0,1,7.34.723,25.734,25.734,0,0,1,5.48,1.964L1068.81,437a23.367,23.367,0,0,0-6.51-2.984,32.212,32.212,0,0,0-9.2-1.15,28.829,28.829,0,0,0-8.78,1.418,38.816,38.816,0,0,0-8.27,3.721,36.272,36.272,0,0,0-6.93,5.4,26.32,26.32,0,0,0-4.96,6.822h-1.65V436.171H997.081v101.3ZM1145.3,501.909a30.907,30.907,0,0,1-9.61,10.646q-6.105,4.24-15.4,4.238a32.555,32.555,0,0,1-9.3-1.343,24.835,24.835,0,0,1-8.38-4.342,25.683,25.683,0,0,1-6.4-7.442,28.332,28.332,0,0,1-3.42-10.646h76.29a11.485,11.485,0,0,1,.2-2.274,13.719,13.719,0,0,1,.21-2.274v-2.481a65.2,65.2,0,0,0-3.31-21.086,48,48,0,0,0-9.71-16.848,44.367,44.367,0,0,0-15.92-11.163,55.2,55.2,0,0,0-21.71-4.031,50.891,50.891,0,0,0-21.19,4.341,52.453,52.453,0,0,0-27.6,28.838,55.592,55.592,0,0,0-3.92,20.776,56.3,56.3,0,0,0,4.03,21.6,50.986,50.986,0,0,0,28.32,28.321,55.778,55.778,0,0,0,21.4,4.031q17.145,0,29.04-7.648a56.826,56.826,0,0,0,18.92-20.053ZM1094.24,473.8a26.192,26.192,0,0,1,9.3-13.851,24.8,24.8,0,0,1,15.3-4.961,27.536,27.536,0,0,1,10.65,1.86,23.852,23.852,0,0,1,7.44,4.755,21.246,21.246,0,0,1,4.55,6.2,17.694,17.694,0,0,1,1.76,6h-49Z" transform="translate(-567.313 -432.875)"/>
</svg>
